<svg width="197" height="50" viewBox="0 0 197 50" fill="none" xmlns="http://www.w3.org/2000/svg">
<g clip-path="url(#clip0_124_8350)">
<path d="M61.57 28.05C62.3748 26.6556 62.9775 25.1539 63.36 23.59L63.71 23.4L66.8 24.4L66.96 24.81C66.5722 26.5792 65.9394 28.2856 65.08 29.88L64.76 30.01L61.57 28.77V30.96H57.24L57.4 21.11V17.48C57.0361 18.3672 56.5767 19.2122 56.03 20C55.9924 20.0843 55.9343 20.1578 55.8609 20.2137C55.7875 20.2696 55.7012 20.3062 55.61 20.32C55.45 20.32 55.36 20.19 55.29 19.97L54.21 15.57C56.4865 10.8248 58.0533 5.7708 58.86 0.569977L59.12 0.409973L62.88 1.26999L63.04 1.54999C62.56 3.74999 62.04 5.75999 61.57 7.60999V28.05ZM79.36 6.29999C79.1 7.02999 78.85 7.72999 78.56 8.42999H80.28L84.55 8.34L84.75 8.5V11.43L84.55 11.59L80.28 11.5H66.28L62.39 11.59L62.13 11.4V8.53L62.36 8.34L66.28 8.42999H67.55C67.43 7.72999 67.27 7.02999 67.08 6.32999L63.63 6.38998L63.41 6.19998V3.29999L63.6 3.09998L67.87 3.19998H70.87V0.799988L71.09 0.569977H75.17L75.4 0.799988V3.22H78.72L82.96 3.12L83.15 3.28V6.22L82.96 6.37L79.36 6.29999ZM74.61 22.08C75.4453 22.6897 76.216 23.3833 76.91 24.15L76.84 24.47L74.04 26.3H73.75C73.0655 25.3913 72.2842 24.5597 71.42 23.82V26.3C71.42 27.03 71.42 27.13 73.18 27.13C75.82 27.13 75.95 26.93 76.18 25.05L79.24 26.14C79.66 26.3 79.85 26.46 79.82 26.87C79.7943 27.8858 79.4038 28.8584 78.72 29.61C78.02 30.22 76.97 30.61 72.31 30.61C67.98 30.61 67.31 30.23 67.31 28.03L67.37 25.45V23.45L67.63 23.19H71.17L71.23 23.25L73.23 22.11H69L64.76 22.2L64.57 21.95L64.73 18.7V15.7L64.63 12.58L64.86 12.36L68.86 12.45H77.4L81.32 12.36L81.55 12.58L81.45 15.7V18.7L81.55 21.92L81.32 22.2L77.18 22.11L74.61 22.08ZM77.16 16.08V14.93H68.87V16.08H77.16ZM68.87 19.49H77.16V18.34H68.87V19.49ZM71.07 6.29999C71.3 6.99999 71.52 7.69999 71.71 8.42999H74.39C74.61 7.72999 74.77 6.99999 74.93 6.29999H71.07ZM81.4 22.84H81.72C83.0128 24.106 84.1083 25.5589 84.97 27.15L84.87 27.44L81.78 29.3L81.5 29.21C80.7775 27.5156 79.762 25.9618 78.5 24.62L78.6 24.33L81.4 22.84Z" fill="white"/>
<path d="M104.66 3.86002C105.305 2.81506 105.831 1.70152 106.23 0.540009L106.48 0.380005L110.63 1.28003L110.82 1.56003C110.386 2.35474 109.905 3.12276 109.38 3.86002H113.84L118.37 3.76001L118.56 3.92001V6.85001L118.37 6.98001L113.84 6.92001H108.72V8.13H112.36L116.88 8.06003L117.08 8.19003V10.81L116.88 10.93L112.36 10.84H108.72V11.99H112.36L116.88 11.89L117.08 12.05V14.66L116.88 14.76L112.36 14.69H108.72V15.87H114.11L118.64 15.78L118.83 15.91V18.91L118.64 19.04L114.11 18.94H107.42V20.22H114.72L120.01 20.15L120.23 20.34V23.6L120.01 23.82L114.72 23.72H110.51C113.752 25.3598 117.22 26.509 120.8 27.13L118.03 30.42C117.98 30.4916 117.912 30.5493 117.833 30.5878C117.755 30.6262 117.667 30.6442 117.58 30.64C117.448 30.6321 117.319 30.5981 117.2 30.54C112.9 29.08 110.13 27.74 107.42 25.54L107.61 31.05H102.61L102.81 25.76C99.8092 27.8824 96.5099 29.5472 93.0199 30.7C92.9011 30.7581 92.772 30.7921 92.6399 30.8C92.5608 30.7976 92.4836 30.7753 92.4154 30.7351C92.3472 30.6949 92.2903 30.6381 92.2499 30.57L89.7099 27.57C93.1784 26.756 96.5147 25.4566 99.6199 23.71H95.7899L90.4999 23.81L90.2799 23.59V20.27L90.5699 20.14L95.7899 20.21H102.79V18.9H98.5199L94.0599 19L93.8399 18.81L93.9299 14.73V10.23C93.5799 10.52 93.1999 10.81 92.8499 11.06C92.7098 11.1891 92.53 11.2666 92.3399 11.28C92.2423 11.2757 92.1466 11.2513 92.0589 11.2083C91.9711 11.1652 91.8932 11.1046 91.8299 11.03L89.4399 8.83002C92.7799 6.37002 95.3299 3.98 97.1499 0.380005H97.4399L101.36 1.59003V1.91C100.95 2.58 100.47 3.25 100.02 3.91L104.66 3.86002ZM98.3899 6.92001V8.13H104.22V6.92001H98.3899ZM98.3899 10.84V11.99H104.22V10.84H98.3899ZM98.3899 14.69V15.87H104.22V14.69H98.3899Z" fill="white"/>
<path d="M130.45 5.55002C129.68 5.64002 128.98 5.74002 128.31 5.77002C127.9 5.77002 127.67 5.67001 127.58 5.51001L125.86 2.58002C129.187 2.47549 132.486 1.93075 135.67 0.960022H135.99C137.08 1.74472 138.103 2.61765 139.05 3.57001L138.96 3.89001C137.52 4.24001 136.02 4.59001 134.56 4.89001V8.52002H135.16L138.51 8.43002L138.67 8.59003V12.12L138.51 12.28L135.16 12.19H134.56V15.06L136.28 13.91H136.63C137.821 15.0858 138.89 16.3791 139.82 17.77V18.09L136.95 20.16H136.63C136.02 19.16 135.35 17.96 134.63 16.91V20L134.85 30.87H130.33L130.55 20.67C129.992 22.1289 129.285 23.5263 128.44 24.84C128.405 24.9215 128.348 24.9917 128.276 25.0429C128.204 25.0941 128.118 25.1242 128.03 25.13C127.927 25.1156 127.83 25.0762 127.746 25.0151C127.662 24.9541 127.595 24.8733 127.55 24.78L125.48 21.43C127.518 18.6142 129.079 15.4824 130.1 12.16H129.72L126.09 12.25L125.86 12.06V8.59003L126.05 8.40002L129.72 8.49002H130.52L130.45 5.55002ZM152.72 30.95H147.87L148 22.06L142.93 23.17L138.76 24.17L138.47 24.08L137.83 20.13L138.02 19.9L142.33 19.14L148.03 17.93V0.930023L148.25 0.700012H152.33L152.56 0.930023V16.93L155.49 16.19L155.81 16.29L156.35 20.11L156.16 20.34L152.59 21.04L152.72 30.95ZM144.47 16.3L144.15 16.39C142.693 15.2031 141.098 14.1959 139.4 13.39V13.07L141.67 10.26L141.98 10.17C143.633 10.8872 145.214 11.7612 146.7 12.78L146.76 13.1L144.47 16.3ZM145.01 9.16H144.69C143.365 7.78428 141.841 6.61468 140.17 5.69003V5.37003L142.72 2.85001H143.04C144.722 3.60579 146.263 4.64036 147.6 5.91V6.23001L145.01 9.16Z" fill="white"/>
<path d="M161.87 10.61L161.65 10.42V6.95001L161.84 6.76001L165.25 6.85001V0.76001L165.51 0.51001H169.2L169.49 0.730011V6.82001L172.2 6.76001L172.39 6.92001V10.45L172.2 10.61L169.49 10.55V14.3C170.61 13.95 171.66 13.57 172.65 13.19V16.37C172.65 16.95 172.52 17.11 171.98 17.37C171.27 17.69 170.45 18.04 169.49 18.37V19.3L169.65 26.4C169.65 30.1 168.25 31.06 164.2 31.06C163.82 31.06 163.72 30.99 163.59 30.68L161.81 26.68C162.672 26.6886 163.533 26.6451 164.39 26.55C165.06 26.49 165.25 26.3 165.25 25.55V19.88C164.45 20.17 163.62 20.42 162.8 20.68L162.51 20.52L161.23 16.79L161.39 16.5C162.67 16.21 163.97 15.93 165.25 15.58V10.51L161.87 10.61ZM185.49 12.37L188.07 12.21L189.99 13.96C190.063 14.0164 190.121 14.0894 190.159 14.173C190.197 14.2566 190.215 14.3482 190.21 14.44C190.203 14.6239 190.169 14.8058 190.11 14.98C189.26 18.2751 187.704 21.3461 185.55 23.98C187.685 25.1352 189.991 25.942 192.38 26.37L190.21 30.13C190.08 30.33 189.99 30.42 189.79 30.42C189.652 30.4078 189.515 30.3878 189.38 30.36C186.735 29.7395 184.227 28.6378 181.98 27.11C179.281 28.7758 176.334 30.0012 173.25 30.74C172.84 30.84 172.74 30.74 172.55 30.45L170.22 27.01C173.187 26.4856 176.054 25.5039 178.72 24.1C177.319 22.3205 176.171 20.3551 175.31 18.26L175.47 17.95L178.94 16.7L179.26 16.86C179.927 18.5262 180.901 20.0525 182.13 21.36C183.427 19.8968 184.387 18.1658 184.94 16.29H178.24L174.07 16.35L173.84 16.13V12.53L174.07 12.3L178.24 12.37H179.68V9.18002H177.92L173.17 9.28003L172.95 9.05002V5.36002L173.17 5.13L177.92 5.23001H179.68V0.730011L179.9 0.51001H184.01L184.23 0.730011V5.23001H186.72L191.53 5.13L191.69 5.36002V9.08002L191.47 9.28003L186.72 9.18002H184.23V12.37H185.49Z" fill="white"/>
<path d="M64.1502 44.71V46.3H57.7202V37.42H63.9902V38.96H60.1702V41.06H63.6402V42.54H60.1702V44.76L64.1502 44.71Z" fill="white"/>
<path d="M74.35 39.06L69.82 44.69C70.3717 44.5714 70.9359 44.521 71.5 44.54H74.35V46.3H67.23V44.62L71.63 39.04C71.0776 39.1253 70.5188 39.1621 69.96 39.15H67.23V37.46H74.35V39.06Z" fill="white"/>
<path d="M81.5098 37.37C83.9898 37.37 85.3298 38.3 85.3298 40.3C85.3298 42.48 83.6398 43.44 81.2598 43.44H80.4298V46.3H78.0898V37.42L81.5098 37.37ZM81.3898 41.96C81.5943 41.9791 81.8004 41.9514 81.9924 41.8788C82.1845 41.8063 82.3576 41.691 82.4983 41.5415C82.6391 41.392 82.7439 41.2124 82.8049 41.0164C82.8658 40.8203 82.8811 40.6129 82.8498 40.41C82.8789 40.207 82.862 40.0001 82.8004 39.8045C82.7387 39.6089 82.634 39.4296 82.4939 39.2799C82.3538 39.1302 82.1818 39.0138 81.9908 38.9394C81.7997 38.865 81.5943 38.8344 81.3898 38.85H80.3898V41.96H81.3898Z" fill="white"/>
<path d="M95.3999 44.66V46.3H88.9399V37.42H91.4099V44.71L95.3999 44.66Z" fill="white"/>
<path d="M106.77 37.37V43.06C106.77 45.35 105.03 46.36 102.56 46.36C100.09 46.36 98.3398 45.36 98.3398 43.06V37.37H100.82V42.97C100.82 44.31 101.54 44.87 102.56 44.87C103.58 44.87 104.3 44.31 104.3 42.97V37.37H106.77Z" fill="white"/>
<path d="M112.84 43.3C112.852 43.5232 112.91 43.7416 113.009 43.9419C113.108 44.1422 113.247 44.3203 113.418 44.4652C113.588 44.6102 113.786 44.719 113.999 44.7852C114.213 44.8513 114.438 44.8733 114.66 44.85C115.29 44.85 115.76 44.58 115.76 44.01C115.76 43.44 115.3 43.12 113.66 42.63C111.76 42.06 110.78 41.28 110.78 39.92C110.78 38.25 112.17 37.25 114.29 37.25C116.41 37.25 117.74 38.16 118.03 39.85L115.65 40.27C115.56 39.2 115.06 38.65 114.18 38.65C113.5 38.65 113.12 39.01 113.12 39.56C113.12 40.11 113.62 40.48 115.12 40.89C117.34 41.49 118.27 42.2 118.27 43.66C118.27 45.31 116.87 46.36 114.51 46.36C112.15 46.36 110.66 45.42 110.38 43.56L112.84 43.3Z" fill="white"/>
<path d="M135.05 43.4C134.877 44.3087 134.371 45.1201 133.631 45.675C132.891 46.23 131.971 46.4886 131.05 46.4C128.05 46.4 126.54 44.87 126.54 41.85C126.54 39.04 128.22 37.3 130.93 37.3C133.11 37.3 134.53 38.3 134.93 40.11L132.44 40.59C132.31 39.33 131.8 38.78 130.82 38.78C129.84 38.78 129.11 39.85 129.11 41.78C129.11 43.71 129.81 44.93 130.9 44.93C131.84 44.93 132.29 44.43 132.51 43.18L135.05 43.4Z" fill="white"/>
<path d="M145.39 42.91C145.39 45.34 143.77 46.36 141.65 46.36C139.53 46.36 137.92 45.36 137.92 43.1C137.92 40.67 139.54 39.65 141.65 39.65C143.76 39.65 145.39 40.66 145.39 42.91ZM143.05 42.98C143.05 41.92 142.64 41.07 141.65 41.07C140.66 41.07 140.26 41.67 140.26 43.07C140.26 44.13 140.66 44.98 141.65 44.98C142.64 44.98 143.05 44.3 143.05 42.98V42.98Z" fill="white"/>
<path d="M151.3 45.15C151.262 45.4947 151.094 45.812 150.83 46.0369C150.566 46.2618 150.226 46.3774 149.88 46.36C149.651 46.3219 149.437 46.219 149.264 46.0636C149.091 45.9081 148.966 45.7065 148.904 45.4825C148.842 45.2585 148.845 45.0214 148.913 44.7992C148.981 44.5769 149.112 44.3787 149.289 44.2279C149.466 44.0772 149.682 43.9801 149.912 43.9481C150.142 43.9162 150.377 43.9506 150.588 44.0475C150.8 44.1444 150.979 44.2996 151.105 44.495C151.231 44.6903 151.299 44.9176 151.3 45.15V45.15Z" fill="white"/>
<path d="M155.85 46.36C155.675 46.3877 155.495 46.377 155.324 46.3287C155.153 46.2803 154.995 46.1955 154.859 46.08C154.724 45.9646 154.616 45.8212 154.542 45.6598C154.467 45.4984 154.429 45.3228 154.429 45.145C154.429 44.9673 154.467 44.7917 154.542 44.6303C154.616 44.4689 154.724 44.3255 154.859 44.21C154.995 44.0946 155.153 44.0097 155.324 43.9614C155.495 43.9131 155.675 43.9024 155.85 43.93C156.85 43.93 157.39 44.47 157.39 45.3C157.321 45.979 157.053 46.6225 156.62 47.15L155.62 48.69H154.39L155.85 46.36Z" fill="white"/>
<path d="M172.72 44.66V46.3H166.26V37.42H168.72V44.71L172.72 44.66Z" fill="white"/>
<path d="M178.53 44.06C178.53 44.69 178.88 44.91 179.64 44.91C179.86 44.9068 180.078 44.8766 180.29 44.82V46.18C179.799 46.3006 179.295 46.3611 178.79 46.36C177.34 46.36 176.33 45.73 176.33 44.36V41.12H175.23V39.75H176.33V38.89L178.53 37.8V39.75H180.18V41.12H178.53V44.06Z" fill="white"/>
<path d="M190.2 37.14V46.3H187.99V46.23C187.987 46.0146 188.011 45.7997 188.06 45.59H188C187.747 45.8648 187.437 46.0807 187.091 46.2224C186.746 46.3641 186.373 46.4281 186 46.41C184 46.41 182.92 45.22 182.92 43.03C182.895 42.5964 182.96 42.1623 183.111 41.7549C183.262 41.3476 183.496 40.9759 183.797 40.6632C184.099 40.3505 184.462 40.1035 184.863 39.9377C185.265 39.772 185.696 39.691 186.13 39.7C186.474 39.6829 186.818 39.7391 187.139 39.865C187.459 39.9908 187.75 40.1835 187.99 40.43V40.43C187.856 39.8502 187.806 39.2541 187.84 38.66V37.19L190.2 37.14ZM188.03 42.97C188.03 41.66 187.58 41.04 186.64 41.04C185.7 41.04 185.27 41.78 185.27 42.98C185.27 44.18 185.81 44.98 186.71 44.98C187.61 44.98 188.03 44.24 188.03 42.97V42.97Z" fill="white"/>
<path d="M196.51 45.15C196.472 45.4947 196.304 45.812 196.04 46.0369C195.776 46.2618 195.436 46.3774 195.09 46.36C194.86 46.3219 194.647 46.219 194.474 46.0636C194.301 45.9081 194.176 45.7065 194.114 45.4825C194.052 45.2585 194.055 45.0214 194.123 44.7992C194.191 44.5769 194.322 44.3787 194.499 44.2279C194.675 44.0772 194.892 43.9801 195.122 43.9481C195.352 43.9162 195.587 43.9506 195.798 44.0475C196.01 44.1444 196.189 44.2996 196.315 44.495C196.441 44.6903 196.509 44.9176 196.51 45.15Z" fill="white"/>
<path d="M31.2601 34.81C31.1978 34.7849 31.1301 34.7763 31.0635 34.7851C30.9969 34.7939 30.9338 34.8196 30.8801 34.86L30.1401 35.28C30.1077 35.2976 30.0713 35.3063 30.0344 35.3053C29.9976 35.3043 29.9617 35.2937 29.9303 35.2744C29.8989 35.2552 29.8731 35.228 29.8555 35.1956C29.8379 35.1632 29.8291 35.1268 29.8301 35.09C29.8298 35.0527 29.84 35.0161 29.8594 34.9843C29.8789 34.9525 29.9068 34.9267 29.9401 34.91L30.9401 34.35C31.0478 34.2873 31.1374 34.1977 31.2001 34.09C31.2673 33.9933 31.3023 33.8778 31.3001 33.76C31.3015 33.6954 31.2856 33.6316 31.2539 33.5753C31.2223 33.519 31.176 33.4723 31.1201 33.44C31.0614 33.4093 30.9962 33.3933 30.9301 33.3933C30.8639 33.3933 30.7987 33.4093 30.7401 33.44L29.8401 33.96V33.73C29.8391 33.6912 29.8489 33.653 29.8683 33.6195C29.8877 33.5859 29.916 33.5584 29.9501 33.54L31.0301 32.92C31.1406 32.8576 31.2335 32.7681 31.3001 32.66C31.3661 32.5627 31.401 32.4476 31.4001 32.33C31.4072 32.2632 31.3938 32.1958 31.3617 32.1368C31.3295 32.0779 31.2801 32.0302 31.2201 32C31.1561 31.975 31.0868 31.9665 31.0187 31.9752C30.9505 31.9839 30.8857 32.0096 30.8301 32.05L29.3201 32.91C29.2265 32.9628 29.1421 33.0303 29.0701 33.11C29.0011 33.1881 28.95 33.2802 28.9201 33.38C28.9049 33.4861 28.9049 33.5939 28.9201 33.7V36.21C28.9112 36.2925 28.923 36.3759 28.9544 36.4528C28.9859 36.5296 29.0359 36.5974 29.1001 36.65C29.1513 36.6814 29.21 36.6986 29.2701 36.7C29.377 36.6931 29.4804 36.6587 29.5701 36.6L31.1201 35.71C31.2313 35.6449 31.3269 35.5561 31.4001 35.45C31.4589 35.3463 31.4899 35.2292 31.4901 35.11C31.4857 35.0428 31.4616 34.9785 31.4206 34.9251C31.3797 34.8717 31.3238 34.8316 31.2601 34.81Z" fill="white"/>
<path d="M34.72 32.06C34.6638 32.0276 34.6 32.0104 34.535 32.0104C34.4701 32.0104 34.4063 32.0276 34.35 32.06C34.2424 32.1241 34.1556 32.2178 34.1 32.33C34.0548 32.4256 34.0212 32.5264 34 32.63C33.956 32.8129 33.878 32.9859 33.77 33.14C33.6844 33.2764 33.5635 33.387 33.42 33.46C33.3453 33.5162 33.2534 33.5445 33.16 33.54C33.16 33.54 33.09 33.54 33.04 33.42C32.976 33.258 32.9487 33.0838 32.96 32.91C32.953 32.5907 33.0144 32.2736 33.14 31.98C33.2412 31.7527 33.4084 31.561 33.62 31.43C33.6874 31.3831 33.7679 31.3585 33.85 31.36C33.912 31.3831 33.9624 31.4299 33.99 31.49C34.0378 31.5785 34.1065 31.654 34.19 31.71C34.245 31.7407 34.307 31.7567 34.37 31.7567C34.433 31.7567 34.495 31.7407 34.55 31.71C34.6539 31.649 34.7375 31.5585 34.79 31.45C34.8477 31.3423 34.8786 31.2222 34.88 31.1C34.88 31.0024 34.8605 30.9058 34.8226 30.8159C34.7847 30.7261 34.7291 30.6447 34.6592 30.5766C34.5893 30.5086 34.5064 30.4552 34.4155 30.4197C34.3246 30.3843 34.2275 30.3674 34.13 30.37C33.8774 30.3755 33.6314 30.4517 33.42 30.59C33.2083 30.7102 33.0161 30.862 32.85 31.04C32.6657 31.2316 32.5076 31.4468 32.38 31.68C32.2494 31.9167 32.1486 32.1686 32.08 32.43C32.0166 32.7022 31.9831 32.9805 31.98 33.26C31.9637 33.4229 31.9637 33.5871 31.98 33.75C32.0084 33.8891 32.0555 34.0236 32.12 34.15C32.1812 34.2666 32.2664 34.3688 32.37 34.45C32.475 34.5402 32.6032 34.5991 32.74 34.62H32.85C32.9495 34.634 33.0505 34.634 33.15 34.62C33.3072 34.5708 33.4582 34.5037 33.6 34.42C33.8055 34.2951 33.9937 34.1438 34.16 33.97C34.3139 33.8085 34.4451 33.6269 34.55 33.43C34.6438 33.2648 34.7208 33.0905 34.78 32.91C34.8239 32.7673 34.8474 32.6193 34.85 32.47C34.8738 32.3967 34.874 32.3177 34.8507 32.2442C34.8274 32.1707 34.7817 32.1063 34.72 32.06V32.06Z" fill="white"/>
<path d="M28.1698 33.78C28.1081 33.7476 28.0395 33.7307 27.9698 33.7307C27.9001 33.7307 27.8315 33.7476 27.7698 33.78L25.9498 34.78C25.8337 34.843 25.737 34.9363 25.6698 35.05C25.5989 35.1568 25.5607 35.2818 25.5598 35.41C25.5555 35.4789 25.5711 35.5476 25.6048 35.6079C25.6385 35.6682 25.6888 35.7175 25.7498 35.75C25.8163 35.7736 25.8875 35.7804 25.9573 35.77C26.027 35.7595 26.0931 35.732 26.1498 35.69L26.4798 35.5V37.58C26.4722 37.66 26.4837 37.7406 26.5132 37.8154C26.5428 37.8901 26.5896 37.9568 26.6498 38.01C26.7048 38.0503 26.7716 38.0714 26.8398 38.07C26.9213 38.0674 27.0007 38.0433 27.0698 38C27.1892 37.9324 27.2864 37.8317 27.3498 37.71C27.4192 37.5668 27.4535 37.4091 27.4498 37.25V35.08C27.4488 35.0413 27.4586 35.003 27.478 34.9695C27.4974 34.9359 27.5257 34.9084 27.5598 34.89L27.9798 34.65C28.0966 34.5844 28.196 34.4918 28.2698 34.38C28.3317 34.2735 28.3661 34.1532 28.3698 34.03C28.3595 33.9751 28.3359 33.9236 28.301 33.88C28.2662 33.8364 28.2211 33.802 28.1698 33.78V33.78Z" fill="white"/>
<path d="M41.95 9.75L23.61 0.459991C23.025 0.160166 22.3774 0.00257427 21.72 0C21.0527 0.000114752 20.3949 0.157712 19.8 0.459991L2.35002 9.29999C1.64093 9.66205 1.04599 10.2135 0.631179 10.893C0.21637 11.5726 -0.00209298 12.3538 1.9904e-05 13.15V35.15C-0.00230064 35.9137 0.198327 36.6642 0.581371 37.3249C0.964415 37.9856 1.51612 38.5326 2.18002 38.91L19.49 48.76C20.1181 49.117 20.8275 49.3065 21.55 49.31H21.61C22.3405 49.3092 23.0579 49.116 23.69 48.75L42.15 38.17C42.8107 37.7897 43.3592 37.2418 43.7403 36.5816C44.1213 35.9214 44.3213 35.1723 44.32 34.41V13.62C44.3205 12.8191 44.0994 12.0336 43.6811 11.3506C43.2628 10.6675 42.6637 10.1136 41.95 9.75V9.75ZM2.81002 11.81L20.59 2.81C20.8166 2.69649 21.0666 2.63739 21.32 2.63739C21.5735 2.63739 21.8234 2.69649 22.05 2.81L39.67 11.81C39.8061 11.8787 39.9211 11.9827 40.0032 12.1112C40.0852 12.2397 40.1312 12.3879 40.1363 12.5402C40.1414 12.6925 40.1055 12.8434 40.0322 12.9771C39.959 13.1108 39.8512 13.2223 39.72 13.3L37.87 14.23C37.6122 14.3585 37.3281 14.4254 37.04 14.4254C36.752 14.4254 36.4678 14.3585 36.21 14.23L22.38 7.22998C22.2067 7.14133 22.0147 7.09512 21.82 7.09512C21.6253 7.09512 21.4334 7.14133 21.26 7.22998L19.26 8.29999C19.1575 8.35452 19.0718 8.4359 19.012 8.53543C18.9522 8.63496 18.9206 8.74889 18.9206 8.86499C18.9206 8.98109 18.9522 9.09499 19.012 9.19452C19.0718 9.29405 19.1575 9.37546 19.26 9.42999L28.49 14.14C28.6285 14.2116 28.7446 14.3199 28.8256 14.4531C28.9067 14.5862 28.9495 14.7391 28.9495 14.895C28.9495 15.0509 28.9067 15.2038 28.8256 15.3369C28.7446 15.4701 28.6285 15.5784 28.49 15.65L26.85 16.5C26.6774 16.5911 26.4852 16.6387 26.29 16.6387C26.0949 16.6387 25.9026 16.5911 25.73 16.5L15.01 11.01C14.8356 10.9189 14.6418 10.8713 14.445 10.8713C14.2483 10.8713 14.0544 10.9189 13.88 11.01L11.88 12.09C11.7775 12.1445 11.6918 12.2259 11.632 12.3254C11.5722 12.425 11.5406 12.5389 11.5406 12.655C11.5406 12.7711 11.5722 12.885 11.632 12.9845C11.6918 13.0841 11.7775 13.1655 11.88 13.22L24.51 19.66C24.6485 19.7316 24.7646 19.8399 24.8456 19.9731C24.9267 20.1062 24.9695 20.2591 24.9695 20.415C24.9695 20.5709 24.9267 20.7237 24.8456 20.8569C24.7646 20.9901 24.6485 21.0984 24.51 21.17L22.04 22.3C21.7864 22.4307 21.5053 22.4989 21.22 22.4989C20.9347 22.4989 20.6536 22.4307 20.4 22.3L2.81002 13.3C2.67376 13.229 2.55957 13.122 2.47988 12.9907C2.4002 12.8593 2.35806 12.7086 2.35806 12.555C2.35806 12.4014 2.4002 12.2506 2.47988 12.1193C2.55957 11.9879 2.67376 11.881 2.81002 11.81V11.81ZM2.36002 30.23V19.53C2.35484 19.3178 2.40465 19.1079 2.50461 18.9207C2.60456 18.7335 2.75125 18.5753 2.93043 18.4615C3.10961 18.3478 3.31516 18.2824 3.52712 18.2716C3.73908 18.2608 3.95022 18.305 4.14002 18.4L11.51 22.35L13.6 23.48C13.7928 23.5941 13.9525 23.7565 14.0635 23.9511C14.1744 24.1458 14.2328 24.366 14.2328 24.59C14.2328 24.814 14.1744 25.0342 14.0635 25.2288C13.9525 25.4235 13.7928 25.5858 13.6 25.7L11.47 26.98L4.19002 31.3C4.00357 31.4077 3.79194 31.4641 3.57664 31.4635C3.36133 31.4629 3.15001 31.4053 2.96415 31.2967C2.77828 31.188 2.62449 31.0321 2.51838 30.8447C2.41228 30.6574 2.35764 30.4453 2.36002 30.23V30.23ZM22.61 27.9C21.9162 28.3691 21.3494 29.0028 20.9603 29.7444C20.5711 30.486 20.3718 31.3125 20.38 32.15L20.66 43.69C20.6804 44.4099 20.9173 45.1069 21.34 45.69C21.3775 45.7379 21.3995 45.7961 21.4032 45.8568C21.4068 45.9175 21.392 45.9779 21.3605 46.03C21.3291 46.082 21.2825 46.1233 21.2271 46.1483C21.1716 46.1733 21.1099 46.1809 21.05 46.17C20.05 45.93 18.38 45.79 18.15 43.64V41.56C18.1436 40.9854 17.975 40.4242 17.6637 39.9412C17.3523 39.4582 16.9108 39.073 16.39 38.83L11.13 36.41L9.02002 35.31C8.823 35.2063 8.65699 35.0521 8.53889 34.8634C8.4208 34.6746 8.35483 34.4579 8.34772 34.2354C8.34061 34.0128 8.3926 33.7923 8.49839 33.5964C8.60419 33.4005 8.76002 33.2361 8.95002 33.12L11.13 31.83C18.99 27.14 34.85 18.36 39.85 15.61C40.007 15.5163 40.1867 15.4674 40.3695 15.4687C40.5523 15.4699 40.7313 15.5213 40.887 15.6172C41.0427 15.7131 41.1691 15.8498 41.2525 16.0125C41.3359 16.1752 41.3731 16.3576 41.36 16.54C41.3552 16.8599 41.2657 17.1728 41.1005 17.4468C40.9354 17.7209 40.7006 17.9462 40.42 18.1L22.72 27.85L22.61 27.9ZM41.49 34.13C41.4916 34.4865 41.4003 34.8373 41.2249 35.1477C41.0495 35.4581 40.7962 35.7174 40.49 35.9L25.9 44.3C25.6565 44.436 25.3814 44.5051 25.1025 44.5004C24.8237 44.4956 24.5511 44.4171 24.3124 44.2729C24.0737 44.1287 23.8774 43.9238 23.7435 43.6792C23.6096 43.4345 23.5429 43.1588 23.55 42.88L23.18 32.2C23.1782 31.6997 23.3085 31.2078 23.5579 30.774C23.8072 30.3403 24.1667 29.9801 24.6 29.73L39.43 21.11C39.6392 20.9915 39.8756 20.9298 40.116 20.9308C40.3563 20.9318 40.5922 20.9956 40.8004 21.1158C41.0085 21.2361 41.1816 21.4086 41.3026 21.6163C41.4235 21.824 41.4881 22.0596 41.49 22.3V34.13Z" fill="white"/>
<path d="M38.12 28.07C38.0565 28.0321 37.984 28.0121 37.91 28.0121C37.8361 28.0121 37.7635 28.0321 37.7 28.07C37.5803 28.1416 37.4832 28.2456 37.42 28.37C37.3495 28.5093 37.3151 28.664 37.32 28.82V29.53C37.3201 29.5674 37.311 29.6043 37.2936 29.6374C37.2761 29.6705 37.2509 29.6989 37.22 29.72L36.79 29.96C36.7584 29.9772 36.7229 29.9859 36.6869 29.9854C36.6509 29.9848 36.6156 29.9751 36.5845 29.957C36.5534 29.9389 36.5274 29.9132 36.5091 29.8822C36.4908 29.8512 36.4808 29.816 36.48 29.78V29.53C36.4884 29.45 36.4773 29.3691 36.4477 29.2942C36.4181 29.2193 36.3709 29.1527 36.31 29.1C36.2483 29.0574 36.175 29.0346 36.1 29.0346C36.025 29.0346 35.9518 29.0574 35.89 29.1C35.7703 29.1716 35.6732 29.2756 35.61 29.4C35.5395 29.5393 35.5051 29.694 35.51 29.85V32.47C35.5028 32.5491 35.5134 32.6288 35.5411 32.7032C35.5688 32.7776 35.6128 32.8449 35.67 32.9C35.7233 32.9447 35.7905 32.9694 35.86 32.97C35.9415 32.9675 36.0209 32.9433 36.09 32.9C36.2098 32.8284 36.3068 32.7244 36.37 32.6C36.4429 32.4577 36.4807 32.2999 36.48 32.14V31.3C36.479 31.2613 36.4888 31.223 36.5082 31.1895C36.5276 31.156 36.5559 31.1285 36.59 31.11L37.01 30.87C37.0417 30.8529 37.0772 30.8441 37.1132 30.8447C37.1492 30.8452 37.1844 30.855 37.2155 30.873C37.2466 30.8911 37.2726 30.9169 37.2909 30.9479C37.3092 30.9789 37.3192 31.014 37.32 31.05V31.47C37.3116 31.5468 37.3207 31.6245 37.3467 31.6973C37.3727 31.7701 37.4148 31.8359 37.47 31.89C37.5322 31.9363 37.6076 31.9613 37.685 31.9613C37.7625 31.9613 37.8379 31.9363 37.9 31.89C38.022 31.8212 38.1198 31.7165 38.18 31.59C38.2506 31.4508 38.285 31.296 38.28 31.14V28.5C38.2852 28.4211 38.2737 28.342 38.2461 28.2679C38.2185 28.1938 38.1755 28.1263 38.12 28.07V28.07Z" fill="white"/>
<path d="M39.8798 29.82C39.8197 29.7828 39.7504 29.7631 39.6798 29.7631C39.6091 29.7631 39.5398 29.7828 39.4798 29.82C39.3604 29.8876 39.2631 29.9883 39.1998 30.11C39.131 30.2288 39.0932 30.3629 39.0898 30.5C39.0811 30.5787 39.0965 30.6581 39.134 30.7277C39.1715 30.7974 39.2293 30.854 39.2998 30.89C39.3495 30.8966 39.4 30.8966 39.4498 30.89C39.5313 30.8875 39.6107 30.8633 39.6798 30.82C39.7965 30.7534 39.8932 30.6567 39.9598 30.54C40.0322 30.4156 40.0702 30.274 40.0698 30.13C40.0656 30.0668 40.0462 30.0055 40.0131 29.9515C39.98 29.8975 39.9342 29.8524 39.8798 29.82V29.82Z" fill="white"/>
</g>
<defs>
<clipPath id="clip0_124_8350">
<rect width="196.51" height="49.33" fill="white"/>
</clipPath>
</defs>
</svg>
