<svg width="197" height="50" viewBox="0 0 197 50" fill="none" xmlns="http://www.w3.org/2000/svg">
<g clip-path="url(#clip0_124_8329)">
<path fill-rule="evenodd" clip-rule="evenodd" d="M19.77 0.460014L2.35003 9.30001C1.6416 9.66553 1.04753 10.2191 0.632985 10.9C0.218444 11.5809 -0.000553625 12.3628 1.99032e-05 13.16V35.16C-0.00230065 35.9237 0.198336 36.6743 0.58138 37.3349C0.964424 37.9956 1.51613 38.5426 2.18003 38.92L19.48 48.77C20.1196 49.1234 20.8394 49.3059 21.57 49.3H21.63C22.3605 49.2992 23.0779 49.1061 23.71 48.74L42.17 38.16C42.8295 37.7793 43.3766 37.2309 43.756 36.5706C44.1353 35.9103 44.3333 35.1615 44.33 34.4V13.62C44.3326 12.8199 44.1135 12.0347 43.6969 11.3515C43.2803 10.6684 42.6826 10.1141 41.97 9.75002L23.57 0.460014C22.9755 0.156658 22.3174 -0.00100174 21.65 2.22967e-05C20.9825 -0.00215782 20.3241 0.155567 19.73 0.460014" fill="url(#paint0_linear_124_8329)"/>
<path fill-rule="evenodd" clip-rule="evenodd" d="M2.80009 13.3C2.66383 13.229 2.54964 13.122 2.46996 12.9907C2.39027 12.8593 2.34814 12.7087 2.34814 12.555C2.34814 12.4014 2.39027 12.2507 2.46996 12.1193C2.54964 11.988 2.66383 11.881 2.80009 11.81L20.5701 2.81003C20.7985 2.69641 21.05 2.63727 21.3051 2.63727C21.5602 2.63727 21.8117 2.69641 22.0401 2.81003L39.6601 11.81C39.7986 11.8816 39.9147 11.9899 39.9957 12.1231C40.0768 12.2563 40.1196 12.4091 40.1196 12.565C40.1196 12.7209 40.0768 12.8738 39.9957 13.0069C39.9147 13.1401 39.7986 13.2484 39.6601 13.32L37.8001 14.25C37.544 14.3785 37.2616 14.4453 36.9751 14.4453C36.6886 14.4453 36.4061 14.3785 36.1501 14.25L22.3101 7.25003C22.1393 7.15899 21.9487 7.11136 21.7551 7.11136C21.5615 7.11136 21.3709 7.15899 21.2001 7.25003L19.2001 8.32001C19.0976 8.37454 19.0119 8.45595 18.9521 8.55548C18.8923 8.65501 18.8607 8.76891 18.8607 8.88501C18.8607 9.00111 18.8923 9.11504 18.9521 9.21457C19.0119 9.3141 19.0976 9.39548 19.2001 9.45001L28.4301 14.16C28.5686 14.2316 28.6847 14.3399 28.7657 14.4731C28.8467 14.6062 28.8896 14.7591 28.8896 14.915C28.8896 15.0709 28.8467 15.2238 28.7657 15.3569C28.6847 15.4901 28.5686 15.5984 28.4301 15.67L26.7801 16.52C26.6075 16.6111 26.4153 16.6587 26.2201 16.6587C26.0249 16.6587 25.8327 16.6111 25.6601 16.52L14.9501 11.03C14.7765 10.9364 14.5823 10.8873 14.3851 10.8873C14.1879 10.8873 13.9937 10.9364 13.8201 11.03L11.8201 12.11C11.7176 12.1646 11.6319 12.2459 11.5721 12.3455C11.5123 12.445 11.4807 12.5589 11.4807 12.675C11.4807 12.7911 11.5123 12.905 11.5721 13.0046C11.6319 13.1041 11.7176 13.1855 11.8201 13.24L24.4601 19.68C24.5986 19.7516 24.7147 19.8599 24.7957 19.9931C24.8767 20.1263 24.9196 20.2791 24.9196 20.435C24.9196 20.5909 24.8767 20.7438 24.7957 20.877C24.7147 21.0101 24.5986 21.1184 24.4601 21.19L22.0801 22.35C21.8258 22.4783 21.5449 22.5452 21.2601 22.5452C20.9753 22.5452 20.6944 22.4783 20.4401 22.35L2.80009 13.3ZM13.6401 25.7L11.5001 26.98L4.19009 31.33C4.00067 31.4383 3.78585 31.4943 3.56767 31.4921C3.34949 31.49 3.13581 31.4299 2.94853 31.3179C2.76126 31.2059 2.60713 31.0462 2.50197 30.855C2.39681 30.6638 2.34439 30.4481 2.3501 30.23V19.53C2.344 19.3165 2.39362 19.105 2.49408 18.9165C2.59454 18.728 2.74236 18.5688 2.923 18.4548C3.10365 18.3408 3.31088 18.2757 3.52429 18.2661C3.7377 18.2565 3.94995 18.3027 4.14011 18.4L11.5001 22.35L13.5901 23.48C13.7855 23.5898 13.949 23.7485 14.0644 23.9407C14.1798 24.1328 14.2431 24.3517 14.2482 24.5758C14.2532 24.7998 14.1998 25.0213 14.0932 25.2185C13.9865 25.4156 13.8304 25.5816 13.6401 25.7V25.7ZM11.0801 31.9C18.9501 27.21 34.8101 18.43 39.8101 15.68C39.9671 15.5863 40.1468 15.5374 40.3296 15.5387C40.5124 15.54 40.6914 15.5913 40.8471 15.6872C41.0027 15.7831 41.1291 15.9198 41.2125 16.0825C41.2959 16.2452 41.3331 16.4277 41.3201 16.61C41.3113 16.929 41.2201 17.2403 41.0554 17.5137C40.8907 17.7871 40.658 18.0132 40.3801 18.17L22.7001 27.85L22.6101 27.9C21.9118 28.3645 21.3415 28.9973 20.9518 29.74C20.5621 30.4826 20.3655 31.3114 20.3801 32.15L20.6601 43.69C20.6804 44.4099 20.9174 45.1069 21.3401 45.69C21.3789 45.7386 21.4016 45.7979 21.4052 45.86C21.4088 45.922 21.3931 45.9836 21.3601 46.0363C21.3272 46.089 21.2787 46.1301 21.2214 46.1541C21.1641 46.178 21.1007 46.1836 21.0401 46.17C20.0401 45.93 18.3801 45.79 18.1501 43.64V41.56C18.1414 40.9859 17.9718 40.4258 17.6607 39.9432C17.3496 39.4606 16.9094 39.075 16.3901 38.83L11.1201 36.41L9.0101 35.31C8.81363 35.2054 8.64839 35.0505 8.5312 34.8612C8.41402 34.672 8.34907 34.455 8.34297 34.2325C8.33688 34.01 8.38985 33.7898 8.49649 33.5944C8.60314 33.399 8.75965 33.2353 8.9501 33.12L11.0801 31.9ZM39.9501 30.59C40.0301 30.4684 40.0719 30.3256 40.0701 30.18C40.0725 30.1087 40.0563 30.0379 40.0229 29.9748C39.9896 29.9116 39.9404 29.8583 39.8801 29.82C39.82 29.7828 39.7508 29.7631 39.6801 29.7631C39.6094 29.7631 39.5402 29.7828 39.4801 29.82C39.3588 29.8851 39.2609 29.9865 39.2001 30.11C39.1314 30.2288 39.0936 30.3629 39.0901 30.5C39.0819 30.5774 39.0964 30.6556 39.1319 30.7249C39.1675 30.7941 39.2224 30.8515 39.2901 30.89C39.3432 30.8975 39.397 30.8975 39.4501 30.89C39.5314 30.8861 39.6104 30.8621 39.6801 30.82C39.7891 30.769 39.8824 30.6896 39.9501 30.59V30.59ZM38.2001 31.59C38.2707 31.4508 38.3051 31.296 38.3001 31.14V28.51C38.3068 28.4301 38.295 28.3497 38.2655 28.2751C38.236 28.2005 38.1897 28.1337 38.1301 28.08C38.0685 28.042 37.9975 28.0218 37.9251 28.0218C37.8527 28.0218 37.7817 28.042 37.7201 28.08C37.5973 28.151 37.4969 28.2549 37.4301 28.38C37.363 28.5201 37.332 28.6749 37.3401 28.83V29.54C37.3411 29.5787 37.3313 29.617 37.3119 29.6505C37.2925 29.6841 37.2642 29.7116 37.2301 29.73L36.8101 29.97C36.7785 29.9872 36.7429 29.9959 36.707 29.9954C36.671 29.9948 36.6357 29.9851 36.6046 29.967C36.5735 29.9489 36.5475 29.9231 36.5292 29.8922C36.5109 29.8612 36.5009 29.826 36.5001 29.79V29.54C36.5061 29.4601 36.4939 29.38 36.4645 29.3055C36.435 29.231 36.3891 29.1642 36.3301 29.11C36.2683 29.0674 36.1951 29.0446 36.1201 29.0446C36.0451 29.0446 35.9719 29.0674 35.9101 29.11C35.7881 29.1788 35.6903 29.2836 35.6301 29.41C35.5595 29.5492 35.5251 29.704 35.5301 29.86V32.48C35.5229 32.5582 35.5326 32.6371 35.5585 32.7113C35.5844 32.7854 35.6258 32.8532 35.6801 32.91C35.7376 32.954 35.8077 32.9786 35.8801 32.98C35.9614 32.9761 36.0404 32.9521 36.1101 32.91C36.2276 32.8357 36.3241 32.7324 36.3901 32.61C36.4596 32.4668 36.4938 32.3091 36.4901 32.15V31.3C36.4901 31.2626 36.4991 31.2257 36.5166 31.1926C36.534 31.1595 36.5592 31.1312 36.5901 31.11L37.0201 30.87C37.0517 30.8529 37.0873 30.8441 37.1232 30.8447C37.1592 30.8452 37.1945 30.855 37.2256 30.873C37.2567 30.8911 37.2827 30.9169 37.301 30.9479C37.3193 30.9789 37.3293 31.014 37.3301 31.05V31.47C37.3229 31.5476 37.3336 31.6258 37.3613 31.6986C37.3891 31.7714 37.4331 31.8369 37.4901 31.89C37.55 31.9371 37.6239 31.9626 37.7001 31.9626C37.7763 31.9626 37.8502 31.9371 37.9101 31.89C38.0365 31.8192 38.1379 31.7109 38.2001 31.58V31.59ZM34.7701 32.86C34.8166 32.7177 34.8435 32.5696 34.8501 32.42C34.8561 32.3506 34.8423 32.281 34.8105 32.2191C34.7787 32.1572 34.73 32.1055 34.6701 32.07C34.6139 32.0375 34.55 32.0204 34.4851 32.0204C34.4201 32.0204 34.3563 32.0375 34.3001 32.07C34.1925 32.134 34.1057 32.2278 34.0501 32.34C34.0049 32.4357 33.9713 32.5364 33.9501 32.64C33.9061 32.8229 33.8281 32.996 33.7201 33.15C33.6308 33.2832 33.5107 33.393 33.3701 33.47C33.2924 33.5277 33.1967 33.5561 33.1001 33.55C33.1001 33.55 33.0301 33.55 32.9801 33.43C32.9263 33.2656 32.9026 33.0928 32.9101 32.92C32.8948 32.6001 32.9565 32.2811 33.0901 31.99C33.1913 31.7627 33.3585 31.571 33.5701 31.44C33.6375 31.3931 33.718 31.3686 33.8001 31.37C33.8621 31.3931 33.9125 31.4399 33.9401 31.5C33.985 31.5879 34.0545 31.6609 34.1401 31.71C34.1921 31.744 34.2529 31.7621 34.3151 31.7621C34.3772 31.7621 34.4381 31.744 34.4901 31.71C34.5926 31.6441 34.6782 31.555 34.7401 31.45C34.7967 31.3419 34.8275 31.2221 34.8301 31.1C34.8306 30.9137 34.7589 30.7345 34.6301 30.6C34.5594 30.5256 34.474 30.4668 34.3793 30.4272C34.2846 30.3876 34.1827 30.3681 34.0801 30.37C33.829 30.376 33.584 30.4485 33.3701 30.58C33.1572 30.7069 32.9621 30.8616 32.7901 31.04C32.6123 31.2346 32.4579 31.4494 32.3301 31.68C32.1995 31.9167 32.0987 32.1686 32.0301 32.43C31.9618 32.7014 31.9282 32.9802 31.9301 33.26C31.9138 33.4229 31.9138 33.5871 31.9301 33.75C31.9585 33.8891 32.0056 34.0236 32.0701 34.15C32.13 34.2646 32.2115 34.3665 32.3101 34.45C32.4188 34.5405 32.5502 34.5993 32.6901 34.62H32.7901C32.893 34.634 32.9972 34.634 33.1001 34.62C33.2573 34.5708 33.4082 34.5037 33.5501 34.42C33.7556 34.2951 33.9438 34.1438 34.1101 33.97C34.264 33.8085 34.3952 33.6269 34.5001 33.43C34.6174 33.2506 34.7083 33.0553 34.7701 32.85V32.86ZM31.3401 35.5C31.4053 35.3986 31.44 35.2806 31.4401 35.16C31.4479 35.0918 31.4349 35.0228 31.4028 34.9621C31.3707 34.9014 31.3209 34.8519 31.2601 34.82C31.1961 34.795 31.1269 34.7865 31.0587 34.7952C30.9906 34.804 30.9257 34.8297 30.8701 34.87L30.1401 35.29C30.1077 35.3076 30.0713 35.3163 30.0345 35.3153C29.9976 35.3143 29.9617 35.3037 29.9303 35.2845C29.8989 35.2652 29.8731 35.238 29.8555 35.2057C29.8379 35.1733 29.8292 35.1368 29.8301 35.1C29.8298 35.0627 29.84 35.0261 29.8594 34.9943C29.8789 34.9625 29.9068 34.9368 29.9401 34.92L30.9401 34.36C31.0506 34.2976 31.1436 34.2081 31.2101 34.1C31.27 34.0004 31.3011 33.8862 31.3001 33.77C31.3074 33.7057 31.2951 33.6408 31.2648 33.5836C31.2344 33.5265 31.1875 33.4799 31.1301 33.45C31.0715 33.4193 31.0063 33.4034 30.9401 33.4034C30.8739 33.4034 30.8087 33.4193 30.7501 33.45L29.8501 33.97V33.74C29.8491 33.7013 29.8589 33.663 29.8783 33.6295C29.8977 33.596 29.926 33.5685 29.9601 33.55L31.0401 32.93C31.1507 32.8676 31.2436 32.7781 31.3101 32.67C31.3717 32.5706 31.4061 32.4569 31.4101 32.34C31.4134 32.2738 31.3984 32.2079 31.3666 32.1497C31.3348 32.0914 31.2876 32.0431 31.2301 32.01C31.1661 31.985 31.0969 31.9765 31.0287 31.9852C30.9606 31.994 30.8957 32.0197 30.8401 32.06L29.3301 32.92C29.2366 32.9728 29.1521 33.0404 29.0801 33.12C29.0112 33.1981 28.96 33.2902 28.9301 33.39C28.8982 33.4937 28.8813 33.6015 28.8801 33.71V36.22C28.8712 36.3025 28.883 36.386 28.9145 36.4628C28.9459 36.5396 28.9959 36.6074 29.0601 36.66C29.1082 36.6902 29.1633 36.7074 29.2201 36.71C29.3271 36.7032 29.4304 36.6687 29.5201 36.61L31.0801 35.72C31.1836 35.6648 31.2726 35.586 31.3401 35.49V35.5ZM28.2501 34.5C28.3208 34.3974 28.3559 34.2745 28.3501 34.15C28.3579 34.0818 28.3449 34.0128 28.3128 33.9521C28.2807 33.8914 28.2309 33.8419 28.1701 33.81C28.1087 33.7768 28.0399 33.7593 27.9701 33.7593C27.9002 33.7593 27.8315 33.7768 27.7701 33.81L25.9501 34.81C25.8333 34.8756 25.7338 34.9682 25.6601 35.08C25.5922 35.1876 25.5575 35.3128 25.5601 35.44C25.5571 35.5076 25.5723 35.5747 25.6039 35.6345C25.6355 35.6943 25.6826 35.7445 25.7401 35.78C25.8063 35.8055 25.8779 35.8133 25.948 35.8028C26.0181 35.7922 26.0843 35.7638 26.1401 35.72L26.4801 35.53V37.61C26.4726 37.69 26.484 37.7707 26.5136 37.8454C26.5431 37.9201 26.5899 37.9868 26.6501 38.04C26.7051 38.0804 26.7719 38.1015 26.8401 38.1C26.9184 38.0972 26.9945 38.073 27.0601 38.03C27.1814 37.9649 27.2793 37.8635 27.3401 37.74C27.413 37.5977 27.4507 37.44 27.4501 37.28V35.11C27.4491 35.0713 27.4589 35.033 27.4783 34.9995C27.4977 34.966 27.526 34.9385 27.5601 34.92L27.9701 34.68C28.0799 34.6353 28.1764 34.5629 28.2501 34.47V34.5ZM39.4201 21.09C39.633 20.9694 39.874 20.9074 40.1187 20.9106C40.3633 20.9138 40.6027 20.982 40.8124 21.1082C41.022 21.2344 41.1943 21.414 41.3116 21.6287C41.429 21.8434 41.4871 22.0854 41.4801 22.33V34.16C41.4869 34.5175 41.3976 34.8703 41.2218 35.1815C41.0459 35.4928 40.7898 35.7513 40.4801 35.93L25.9001 44.3C25.6559 44.4353 25.3804 44.5038 25.1013 44.4988C24.8221 44.4938 24.5493 44.4154 24.3101 44.2715C24.0709 44.1275 23.8738 43.9232 23.7386 43.6789C23.6035 43.4347 23.535 43.1591 23.5401 42.88L23.1801 32.2C23.1783 31.7009 23.3075 31.21 23.555 30.7766C23.8024 30.3431 24.1594 29.9822 24.5901 29.73L39.4201 21.09Z" fill="white"/>
<path d="M61.57 28.05C62.3705 26.6535 62.9729 25.1525 63.36 23.59L63.71 23.4L66.8 24.4L66.96 24.81C66.5722 26.5792 65.9394 28.2856 65.08 29.88L64.76 30.01L61.57 28.77V30.96H57.24L57.4 21.11V17.48C57.0367 18.3694 56.5737 19.2149 56.02 20C55.9857 20.0846 55.9298 20.1588 55.8578 20.2149C55.7859 20.2711 55.7004 20.3073 55.61 20.32C55.45 20.32 55.36 20.19 55.29 19.97L54.21 15.57C56.4865 10.8248 58.0532 5.7708 58.86 0.569977L59.12 0.409973L62.88 1.26999L63.04 1.54999C62.56 3.74999 62.04 5.75999 61.57 7.60999V28.05ZM79.36 6.29999C79.1 7.02999 78.85 7.72999 78.56 8.42999H80.28L84.57 8.29999L84.76 8.45999V11.39L84.57 11.55L80.3 11.45H66.3L62.41 11.55L62.15 11.36V8.48999L62.38 8.29999L66.3 8.38998H67.57C67.4433 7.72332 67.2833 7.02331 67.09 6.28998L63.65 6.34998L63.43 6.15997V3.29999L63.62 3.10999L67.89 3.20999H70.89V0.799988L71.11 0.569977H75.19L75.41 0.799988V3.22H78.73L82.97 3.12L83.16 3.28V6.20999L82.97 6.37L79.36 6.29999ZM74.57 22.06C75.402 22.6699 76.1694 23.3635 76.86 24.13L76.8 24.45L73.99 26.26H73.71C73.0255 25.3513 72.2442 24.5198 71.38 23.78V26.3C71.38 27.03 71.38 27.13 73.13 27.13C75.78 27.13 75.91 26.93 76.13 25.05L79.19 26.14C79.6 26.3 79.8 26.46 79.76 26.87C79.7361 27.888 79.3414 28.8624 78.65 29.61C77.95 30.22 76.89 30.61 72.24 30.61C67.91 30.61 67.24 30.23 67.24 28.03L67.3 25.45V23.45L67.56 23.19H71.09L71.16 23.25L73.16 22.11H68.96L64.72 22.2L64.53 21.95L64.69 18.7V15.7L64.59 12.58L64.81 12.35L68.81 12.45H77.35L81.27 12.35L81.49 12.58L81.4 15.7V18.7L81.49 21.92L81.27 22.2L77.13 22.11L74.57 22.06ZM77.12 16.06V14.91H68.83V16.06H77.12ZM68.83 19.47H77.12V18.32H68.83V19.47ZM71.03 6.23999C71.25 6.93999 71.48 7.64 71.67 8.37H74.34C74.57 7.67 74.73 6.93999 74.89 6.23999H71.03ZM81.36 22.78H81.68C82.9697 24.0487 84.0649 25.5011 84.93 27.09L84.83 27.37L81.74 29.22L81.45 29.13C80.7316 27.4333 79.7156 25.8789 78.45 24.54L78.54 24.25L81.36 22.78Z" fill="#191919"/>
<path d="M104.66 3.86002C105.302 2.81505 105.825 1.70144 106.22 0.540009L106.48 0.380005L110.62 1.27002L110.81 1.56003C110.38 2.35474 109.902 3.12279 109.38 3.86002H113.84L118.37 3.76001L118.56 3.92001V6.85001L118.37 6.98001L113.84 6.92001H108.74V8.13H112.38L116.9 8.06003L117.09 8.19003V10.81L116.9 10.93L112.38 10.84H108.74V11.98H112.38L116.9 11.89L117.09 12.05V14.66L116.9 14.76L112.38 14.69H108.74V15.87H114.13L118.65 15.78L118.85 15.91V18.91L118.65 19.04L114.13 18.94H107.44V20.22H114.7L119.99 20.15L120.22 20.34V23.6L119.99 23.82L114.7 23.72H110.49C113.738 25.3538 117.208 26.5027 120.79 27.13L118.02 30.42C117.968 30.4897 117.9 30.546 117.821 30.5842C117.743 30.6225 117.657 30.6416 117.57 30.64C117.438 30.6321 117.309 30.5981 117.19 30.54C112.89 29.08 110.11 27.74 107.4 25.54L107.59 31.05H102.59L102.78 25.76C99.7816 27.8804 96.4859 29.5451 92.9999 30.7C92.8811 30.7581 92.752 30.7921 92.6199 30.8C92.5408 30.7976 92.4636 30.7753 92.3954 30.7351C92.3272 30.6949 92.2703 30.6381 92.2299 30.57L89.6799 27.57C93.1521 26.7578 96.4919 25.4583 99.5999 23.71H95.7699L90.4799 23.81L90.2599 23.59V20.27L90.5399 20.14L95.7699 20.21H102.77V18.9H98.4999L94.0399 19L93.8099 18.81L93.9099 14.73V10.23C93.5599 10.52 93.1799 10.81 92.8299 11.06C92.6889 11.1878 92.5096 11.2651 92.3199 11.28C92.2222 11.2763 92.1263 11.2521 92.0384 11.2091C91.9506 11.166 91.8727 11.105 91.8099 11.03L89.4199 8.83002C92.7599 6.37002 95.3099 3.98 97.1299 0.380005H97.4199L101.34 1.59003V1.91C100.92 2.58 100.45 3.25 99.9999 3.91L104.66 3.86002ZM98.3799 6.92001V8.13H104.22V6.92001H98.3799ZM98.3799 10.84V11.98H104.22V10.84H98.3799ZM98.3799 14.69V15.87H104.22V14.69H98.3799Z" fill="#191919"/>
<path d="M130.44 5.54999C129.68 5.63999 128.98 5.73999 128.31 5.76999C127.89 5.76999 127.67 5.66998 127.57 5.50998L125.85 2.57999C129.18 2.4754 132.482 1.93068 135.67 0.959991H135.99C137.08 1.74469 138.103 2.61762 139.05 3.56998L138.95 3.88998C137.52 4.23998 136.02 4.58998 134.56 4.88998V8.51999H135.16L138.51 8.42999L138.67 8.59V12.12L138.51 12.28L135.16 12.19H134.57V15.06L136.29 13.91H136.64C137.831 15.0858 138.899 16.379 139.83 17.77V18.09L136.96 20.16H136.57C135.96 19.16 135.29 17.96 134.57 16.91V20L134.79 30.87H130.26L130.49 20.67C129.924 22.1253 129.217 23.5219 128.38 24.84C128.25 25.04 128.13 25.13 127.97 25.13C127.867 25.1156 127.77 25.0762 127.686 25.0151C127.602 24.9541 127.535 24.8733 127.49 24.78L125.42 21.43C127.453 18.6114 129.014 15.4804 130.04 12.16H129.66L126.02 12.25L125.8 12.06V8.59L125.99 8.39999L129.66 8.48999H130.45L130.44 5.54999ZM152.73 30.95H147.88L148.01 22.06L142.94 23.17L138.76 24.17L138.48 24.08L137.84 20.08L138.03 19.86L142.33 19.1L148.04 17.89V0.889984L148.26 0.659973H152.34L152.57 0.889984V16.89L155.5 16.15L155.82 16.25L156.36 20.07L156.17 20.3L152.6 21L152.73 30.95ZM144.47 16.3L144.15 16.39C142.693 15.2031 141.098 14.1959 139.4 13.39V13.07L141.66 10.26L141.98 10.17C143.634 10.8854 145.215 11.7595 146.7 12.78L146.76 13.1L144.47 16.3ZM145.01 9.15997H144.69C143.36 7.7865 141.838 6.6142 140.17 5.67999V5.37L142.72 2.84998H143.03C144.706 3.59993 146.242 4.63153 147.57 5.89999V6.20999L145.01 9.15997Z" fill="#191919"/>
<path d="M161.87 10.61L161.65 10.42V6.95001L161.84 6.76001L165.25 6.85001V0.76001L165.5 0.51001H169.2L169.49 0.730011V6.82001L172.2 6.76001L172.39 6.92001V10.45L172.2 10.61L169.49 10.55V14.3C170.6 13.95 171.65 13.57 172.64 13.19V16.37C172.64 16.95 172.52 17.11 171.97 17.37C171.42 17.63 170.44 18.04 169.49 18.37V19.3L169.65 26.4C169.65 30.1 168.24 31.06 164.2 31.06C163.81 31.06 163.72 30.99 163.59 30.68L161.81 26.68C162.672 26.6879 163.533 26.6445 164.39 26.55C165.06 26.49 165.25 26.3 165.25 25.55V19.88C164.45 20.17 163.62 20.42 162.79 20.68L162.51 20.52L161.23 16.79L161.39 16.5C162.67 16.21 163.97 15.93 165.25 15.58V10.51L161.87 10.61ZM185.49 12.37L188.07 12.21L189.98 13.96C190.056 14.014 190.117 14.0864 190.157 14.1703C190.197 14.2543 190.215 14.3471 190.21 14.44C190.198 14.6234 190.165 14.8046 190.11 14.98C189.256 18.2735 187.701 21.3436 185.55 23.98C187.682 25.1336 189.984 25.9403 192.37 26.37L190.21 30.13C190.08 30.32 189.98 30.42 189.79 30.42C189.652 30.4078 189.515 30.3878 189.38 30.36C186.735 29.7395 184.227 28.6378 181.98 27.11C179.279 28.7722 176.333 29.9973 173.25 30.74C172.83 30.84 172.74 30.74 172.55 30.45L170.22 27.01C173.17 26.4697 176.019 25.4816 178.67 24.08C177.27 22.3215 176.122 20.3761 175.26 18.3L175.42 17.99L178.89 16.74L179.21 16.9C179.88 18.5649 180.853 20.0908 182.08 21.4C183.374 19.9362 184.33 18.2052 184.88 16.33H178.19L174.01 16.39L173.79 16.17V12.57L174.01 12.34L178.19 12.41H179.62V9.22003H177.87L173.12 9.32001L172.9 9.09003V5.39001L173.12 5.17001L177.87 5.27002H179.62V0.77002L179.85 0.550018H183.96L184.18 0.77002V5.27002H186.67L191.48 5.17001L191.64 5.39001V9.12003L191.42 9.32001L186.67 9.22003H184.18V12.41L185.49 12.37Z" fill="#191919"/>
<path d="M64.15 44.71V46.3H57.75V37.42H64.03V38.96H60.16V41.06H63.64V42.54H60.16V44.76L64.15 44.71Z" fill="#181818"/>
<path d="M74.34 39.06L69.82 44.69C70.3678 44.5675 70.9288 44.5137 71.49 44.53H74.34V46.3H67.22V44.61L71.63 39.04C71.0743 39.1256 70.5121 39.1624 69.95 39.15H67.22V37.46H74.34V39.06Z" fill="#181818"/>
<path d="M81.5101 37.37C83.9901 37.37 85.3201 38.3 85.3201 40.3C85.3201 42.48 83.6401 43.44 81.2601 43.44H80.4301V46.3H78.0801V37.42L81.5101 37.37ZM81.3901 41.96C81.5945 41.9791 81.8006 41.9514 81.9927 41.8788C82.1848 41.8063 82.3578 41.691 82.4986 41.5415C82.6393 41.392 82.7442 41.2124 82.8051 41.0164C82.866 40.8203 82.8814 40.6129 82.8501 40.41C82.8791 40.207 82.8622 40.0001 82.8006 39.8045C82.739 39.6089 82.6343 39.4296 82.4941 39.2799C82.354 39.1302 82.1821 39.0138 81.991 38.9394C81.7999 38.865 81.5946 38.8344 81.3901 38.85H80.3901V41.96H81.3901Z" fill="#181818"/>
<path d="M95.3999 44.66V46.3H88.9299V37.42H91.4099V44.71L95.3999 44.66Z" fill="#181818"/>
<path d="M106.77 37.37V43.06C106.77 45.35 105.03 46.36 102.55 46.36C100.07 46.36 98.3401 45.36 98.3401 43.06V37.37H100.81V42.97C100.81 44.31 101.53 44.87 102.55 44.87C103.57 44.87 104.29 44.31 104.29 42.97V37.37H106.77Z" fill="#181818"/>
<path d="M112.84 43.3C112.852 43.5232 112.91 43.7416 113.009 43.9419C113.108 44.1422 113.247 44.3203 113.418 44.4652C113.588 44.6102 113.786 44.719 113.999 44.7852C114.213 44.8513 114.438 44.8733 114.66 44.85C115.29 44.85 115.76 44.58 115.76 44.01C115.76 43.44 115.3 43.12 113.65 42.63C111.75 42.06 110.78 41.28 110.78 39.92C110.78 38.25 112.17 37.25 114.28 37.25C116.39 37.25 117.74 38.16 118.03 39.85L115.65 40.27C115.55 39.2 115.06 38.65 114.18 38.65C113.49 38.65 113.12 39.01 113.12 39.56C113.12 40.11 113.61 40.48 115.12 40.89C117.34 41.49 118.28 42.2 118.28 43.65C118.28 45.31 116.88 46.36 114.52 46.36C112.16 46.36 110.67 45.42 110.39 43.56L112.84 43.3Z" fill="#181818"/>
<path d="M135.04 43.4C134.869 44.3098 134.364 45.1225 133.623 45.6779C132.883 46.2333 131.961 46.4909 131.04 46.4C128.04 46.4 126.53 44.87 126.53 41.85C126.53 39.04 128.22 37.3 130.92 37.3C133.1 37.3 134.52 38.3 134.92 40.11L132.43 40.59C132.3 39.33 131.79 38.78 130.81 38.78C129.83 38.78 129.1 39.85 129.1 41.78C129.1 43.71 129.79 44.93 130.89 44.93C131.83 44.93 132.28 44.43 132.5 43.18L135.04 43.4Z" fill="#181818"/>
<path d="M145.38 42.91C145.38 45.34 143.77 46.36 141.65 46.36C139.53 46.36 137.92 45.36 137.92 43.1C137.92 40.67 139.54 39.65 141.65 39.65C143.76 39.65 145.38 40.66 145.38 42.91ZM143.04 42.98C143.04 41.92 142.64 41.07 141.65 41.07C140.66 41.07 140.26 41.67 140.26 43.07C140.26 44.13 140.66 44.98 141.65 44.98C142.64 44.98 143.04 44.3 143.04 42.98Z" fill="#181818"/>
<path d="M151.29 45.15C151.255 45.4939 151.089 45.811 150.826 46.0361C150.564 46.2613 150.225 46.3772 149.88 46.36C149.707 46.375 149.533 46.3556 149.368 46.3027C149.202 46.2498 149.049 46.1646 148.917 46.052C148.785 45.9394 148.676 45.8017 148.598 45.6469C148.519 45.492 148.473 45.3231 148.46 45.15C148.491 44.8031 148.657 44.4824 148.923 44.2576C149.189 44.0328 149.533 43.9223 149.88 43.95C150.225 43.925 150.567 44.0368 150.831 44.2613C151.094 44.4858 151.259 44.805 151.29 45.15Z" fill="#181818"/>
<path d="M155.84 46.36C155.669 46.3736 155.496 46.353 155.332 46.2994C155.169 46.2458 155.017 46.1602 154.887 46.0476C154.757 45.935 154.65 45.7977 154.574 45.6436C154.497 45.4896 154.452 45.3218 154.44 45.15C154.45 44.9774 154.495 44.8085 154.571 44.6532C154.647 44.498 154.753 44.3595 154.884 44.2459C155.014 44.1323 155.166 44.0458 155.33 43.9916C155.494 43.9373 155.668 43.9164 155.84 43.93C156.84 43.93 157.38 44.47 157.38 45.3C157.316 45.9783 157.051 46.6222 156.62 47.15L155.62 48.69H154.39L155.84 46.36Z" fill="#181818"/>
<path d="M172.69 44.66V46.3H166.22V37.42H168.7V44.71L172.69 44.66Z" fill="#181818"/>
<path d="M178.57 44.06C178.57 44.69 178.92 44.91 179.68 44.91C179.896 44.9069 180.111 44.8767 180.32 44.82V46.18C179.829 46.3006 179.325 46.3611 178.82 46.36C177.38 46.36 176.36 45.73 176.36 44.36V41.12H175.26V39.75H176.36V38.89L178.57 37.8V39.75H180.22V41.12H178.57V44.06Z" fill="#181818"/>
<path d="M190.19 37.14V46.3H187.99V46.23C187.988 46.0152 188.008 45.8008 188.05 45.59V45.59C187.796 45.8643 187.486 46.0798 187.141 46.2215C186.795 46.3631 186.423 46.4275 186.05 46.41C184.05 46.41 182.98 45.22 182.98 43.03C182.955 42.5964 183.02 42.1623 183.171 41.7549C183.322 41.3476 183.555 40.9759 183.857 40.6632C184.158 40.3505 184.521 40.1035 184.923 39.9377C185.324 39.772 185.756 39.691 186.19 39.7C186.534 39.6842 186.877 39.741 187.198 39.8668C187.518 39.9926 187.808 40.1845 188.05 40.43V40.43C187.916 39.8502 187.865 39.2541 187.9 38.66V37.19L190.19 37.14ZM188.03 42.97C188.03 41.66 187.57 41.04 186.64 41.04C185.71 41.04 185.27 41.78 185.27 42.98C185.27 44.18 185.81 44.98 186.7 44.98C187.59 44.98 188.03 44.23 188.03 42.97V42.97Z" fill="#181818"/>
<path d="M196.51 45.15C196.472 45.4947 196.304 45.812 196.04 46.0369C195.776 46.2618 195.436 46.3774 195.09 46.36C194.741 46.3876 194.396 46.2757 194.13 46.0488C193.863 45.822 193.698 45.4987 193.67 45.15C193.7 44.8031 193.867 44.4824 194.133 44.2576C194.399 44.0328 194.743 43.9223 195.09 43.95C195.436 43.9249 195.779 44.0364 196.044 44.2607C196.31 44.485 196.477 44.8041 196.51 45.15Z" fill="#181818"/>
</g>
<defs>
<linearGradient id="paint0_linear_124_8329" x1="22.15" y1="2.22955e-05" x2="22.15" y2="49.33" gradientUnits="userSpaceOnUse">
<stop stop-color="#3697C6"/>
<stop offset="1" stop-color="#2C2A53"/>
</linearGradient>
<clipPath id="clip0_124_8329">
<rect width="196.51" height="49.33" fill="white"/>
</clipPath>
</defs>
</svg>
